<mxfile host="app.diagrams.net" modified="2024-03-06T15:19:21.931Z" agent="Mozilla/5.0 (Macintosh; Intel Mac OS X 10_15_7) AppleWebKit/537.36 (KHTML, like Gecko) Chrome/122.0.0.0 Safari/537.36" etag="BYcYMJKAzRZ013sKIL39" version="24.0.2" type="device">
  <diagram name="Страница — 1" id="uOxXHXKh038WVAj3gjcE">
    <mxGraphModel dx="1706" dy="1080" grid="1" gridSize="10" guides="1" tooltips="1" connect="1" arrows="1" fold="1" page="1" pageScale="1" pageWidth="827" pageHeight="1169" math="0" shadow="0">
      <root>
        <mxCell id="0" />
        <mxCell id="1" parent="0" />
        <mxCell id="snDJWIWxpPCMGMMHMseY-28" value="" style="whiteSpace=wrap;html=1;aspect=fixed;" vertex="1" parent="1">
          <mxGeometry y="110" width="910" height="910" as="geometry" />
        </mxCell>
        <mxCell id="snDJWIWxpPCMGMMHMseY-26" value="" style="rounded=0;whiteSpace=wrap;html=1;" vertex="1" parent="1">
          <mxGeometry x="150" y="180" width="270" height="775" as="geometry" />
        </mxCell>
        <mxCell id="snDJWIWxpPCMGMMHMseY-4" value="Ввод имен игроков" style="ellipse;whiteSpace=wrap;html=1;" vertex="1" parent="1">
          <mxGeometry x="230" y="230" width="110" height="50" as="geometry" />
        </mxCell>
        <mxCell id="snDJWIWxpPCMGMMHMseY-5" value="Выбор ведущего" style="ellipse;whiteSpace=wrap;html=1;" vertex="1" parent="1">
          <mxGeometry x="230" y="310" width="110" height="50" as="geometry" />
        </mxCell>
        <mxCell id="snDJWIWxpPCMGMMHMseY-6" value="Расставление предметов" style="ellipse;whiteSpace=wrap;html=1;" vertex="1" parent="1">
          <mxGeometry x="230" y="390" width="110" height="50" as="geometry" />
        </mxCell>
        <mxCell id="snDJWIWxpPCMGMMHMseY-7" value="Ведущий" style="shape=umlActor;verticalLabelPosition=bottom;verticalAlign=top;html=1;" vertex="1" parent="1">
          <mxGeometry x="550" y="465" width="30" height="60" as="geometry" />
        </mxCell>
        <mxCell id="snDJWIWxpPCMGMMHMseY-10" value="Запуск таймера" style="ellipse;whiteSpace=wrap;html=1;" vertex="1" parent="1">
          <mxGeometry x="230" y="470" width="110" height="50" as="geometry" />
        </mxCell>
        <mxCell id="snDJWIWxpPCMGMMHMseY-11" value="Запоминание предметов" style="ellipse;whiteSpace=wrap;html=1;" vertex="1" parent="1">
          <mxGeometry x="230" y="550" width="110" height="50" as="geometry" />
        </mxCell>
        <mxCell id="snDJWIWxpPCMGMMHMseY-12" value="Закрытие стола" style="ellipse;whiteSpace=wrap;html=1;" vertex="1" parent="1">
          <mxGeometry x="230" y="630" width="110" height="50" as="geometry" />
        </mxCell>
        <mxCell id="snDJWIWxpPCMGMMHMseY-13" value="Выбор предметов" style="ellipse;whiteSpace=wrap;html=1;" vertex="1" parent="1">
          <mxGeometry x="230" y="720" width="110" height="50" as="geometry" />
        </mxCell>
        <mxCell id="snDJWIWxpPCMGMMHMseY-14" value="Отображение победителя" style="ellipse;whiteSpace=wrap;html=1;" vertex="1" parent="1">
          <mxGeometry x="230" y="870" width="110" height="50" as="geometry" />
        </mxCell>
        <mxCell id="snDJWIWxpPCMGMMHMseY-15" value="Игрок" style="shape=umlActor;verticalLabelPosition=bottom;verticalAlign=top;html=1;" vertex="1" parent="1">
          <mxGeometry x="20" y="490" width="30" height="60" as="geometry" />
        </mxCell>
        <mxCell id="snDJWIWxpPCMGMMHMseY-16" value="Оценка результатов" style="ellipse;whiteSpace=wrap;html=1;" vertex="1" parent="1">
          <mxGeometry x="230" y="800" width="110" height="50" as="geometry" />
        </mxCell>
        <mxCell id="snDJWIWxpPCMGMMHMseY-17" value="" style="endArrow=classic;html=1;rounded=0;entryX=0;entryY=0.5;entryDx=0;entryDy=0;exitX=0.5;exitY=0.5;exitDx=0;exitDy=0;exitPerimeter=0;" edge="1" parent="1" source="snDJWIWxpPCMGMMHMseY-15" target="snDJWIWxpPCMGMMHMseY-4">
          <mxGeometry width="50" height="50" relative="1" as="geometry">
            <mxPoint x="40" y="610" as="sourcePoint" />
            <mxPoint x="440" y="550" as="targetPoint" />
          </mxGeometry>
        </mxCell>
        <mxCell id="snDJWIWxpPCMGMMHMseY-18" value="" style="endArrow=classic;html=1;rounded=0;entryX=0;entryY=0.5;entryDx=0;entryDy=0;exitX=0.5;exitY=0.5;exitDx=0;exitDy=0;exitPerimeter=0;" edge="1" parent="1" source="snDJWIWxpPCMGMMHMseY-15" target="snDJWIWxpPCMGMMHMseY-5">
          <mxGeometry width="50" height="50" relative="1" as="geometry">
            <mxPoint x="35" y="270" as="sourcePoint" />
            <mxPoint x="240" y="265" as="targetPoint" />
          </mxGeometry>
        </mxCell>
        <mxCell id="snDJWIWxpPCMGMMHMseY-19" value="" style="endArrow=classic;html=1;rounded=0;entryX=1;entryY=0.5;entryDx=0;entryDy=0;exitX=0.5;exitY=0.5;exitDx=0;exitDy=0;exitPerimeter=0;" edge="1" parent="1" source="snDJWIWxpPCMGMMHMseY-7" target="snDJWIWxpPCMGMMHMseY-6">
          <mxGeometry width="50" height="50" relative="1" as="geometry">
            <mxPoint x="130" y="270" as="sourcePoint" />
            <mxPoint x="250" y="275" as="targetPoint" />
          </mxGeometry>
        </mxCell>
        <mxCell id="snDJWIWxpPCMGMMHMseY-20" value="" style="endArrow=classic;html=1;rounded=0;entryX=1;entryY=0.5;entryDx=0;entryDy=0;exitX=0.5;exitY=0.5;exitDx=0;exitDy=0;exitPerimeter=0;" edge="1" parent="1" source="snDJWIWxpPCMGMMHMseY-7" target="snDJWIWxpPCMGMMHMseY-10">
          <mxGeometry width="50" height="50" relative="1" as="geometry">
            <mxPoint x="495" y="590" as="sourcePoint" />
            <mxPoint x="350" y="425" as="targetPoint" />
          </mxGeometry>
        </mxCell>
        <mxCell id="snDJWIWxpPCMGMMHMseY-21" value="" style="endArrow=classic;html=1;rounded=0;entryX=1;entryY=0.5;entryDx=0;entryDy=0;exitX=0.5;exitY=0.5;exitDx=0;exitDy=0;exitPerimeter=0;" edge="1" parent="1" source="snDJWIWxpPCMGMMHMseY-7" target="snDJWIWxpPCMGMMHMseY-12">
          <mxGeometry width="50" height="50" relative="1" as="geometry">
            <mxPoint x="505" y="600" as="sourcePoint" />
            <mxPoint x="360" y="435" as="targetPoint" />
          </mxGeometry>
        </mxCell>
        <mxCell id="snDJWIWxpPCMGMMHMseY-22" value="" style="endArrow=classic;html=1;rounded=0;entryX=0;entryY=0.5;entryDx=0;entryDy=0;exitX=0.5;exitY=0.5;exitDx=0;exitDy=0;exitPerimeter=0;" edge="1" parent="1" source="snDJWIWxpPCMGMMHMseY-15" target="snDJWIWxpPCMGMMHMseY-11">
          <mxGeometry width="50" height="50" relative="1" as="geometry">
            <mxPoint x="515" y="610" as="sourcePoint" />
            <mxPoint x="370" y="445" as="targetPoint" />
          </mxGeometry>
        </mxCell>
        <mxCell id="snDJWIWxpPCMGMMHMseY-23" value="" style="endArrow=classic;html=1;rounded=0;entryX=0;entryY=0.5;entryDx=0;entryDy=0;exitX=0.5;exitY=0.5;exitDx=0;exitDy=0;exitPerimeter=0;" edge="1" parent="1" source="snDJWIWxpPCMGMMHMseY-15" target="snDJWIWxpPCMGMMHMseY-13">
          <mxGeometry width="50" height="50" relative="1" as="geometry">
            <mxPoint x="135" y="730" as="sourcePoint" />
            <mxPoint x="240" y="585" as="targetPoint" />
          </mxGeometry>
        </mxCell>
        <mxCell id="snDJWIWxpPCMGMMHMseY-24" value="" style="endArrow=classic;html=1;rounded=0;entryX=1;entryY=0.5;entryDx=0;entryDy=0;exitX=0.5;exitY=0.5;exitDx=0;exitDy=0;exitPerimeter=0;" edge="1" parent="1" source="snDJWIWxpPCMGMMHMseY-7" target="snDJWIWxpPCMGMMHMseY-16">
          <mxGeometry width="50" height="50" relative="1" as="geometry">
            <mxPoint x="145" y="740" as="sourcePoint" />
            <mxPoint x="250" y="595" as="targetPoint" />
          </mxGeometry>
        </mxCell>
        <mxCell id="snDJWIWxpPCMGMMHMseY-25" value="" style="endArrow=classic;html=1;rounded=0;entryX=1;entryY=0.5;entryDx=0;entryDy=0;exitX=0.5;exitY=0.5;exitDx=0;exitDy=0;exitPerimeter=0;" edge="1" parent="1" source="snDJWIWxpPCMGMMHMseY-7" target="snDJWIWxpPCMGMMHMseY-14">
          <mxGeometry width="50" height="50" relative="1" as="geometry">
            <mxPoint x="155" y="750" as="sourcePoint" />
            <mxPoint x="260" y="605" as="targetPoint" />
          </mxGeometry>
        </mxCell>
        <mxCell id="snDJWIWxpPCMGMMHMseY-27" value="Игровой процесс" style="text;html=1;align=center;verticalAlign=middle;whiteSpace=wrap;rounded=0;" vertex="1" parent="1">
          <mxGeometry x="200" y="180" width="170" height="30" as="geometry" />
        </mxCell>
      </root>
    </mxGraphModel>
  </diagram>
</mxfile>
